<svg width="189" height="40" viewBox="0 0 189 40" fill="none" xmlns="http://www.w3.org/2000/svg">
<g id="Group">
<g id="Group_2">
<g id="Group_3">
<g id="Group_4">
<path id="Vector" d="M180.231 0C176.151 0 172.774 3.07774 172.302 7.03725C170.826 5.68279 168.925 4.94091 166.909 4.94091C164.775 4.94091 162.769 5.77182 161.26 7.28101L142.59 25.953V7.98686C142.59 3.58222 139.008 0 134.604 0C130.523 0 127.147 3.07774 126.674 7.03725C125.199 5.68279 123.297 4.94091 121.281 4.94091C119.147 4.94091 117.142 5.77182 115.633 7.28101L112.926 9.98781C113.114 9.33284 113.216 8.64395 113.216 7.92963C113.216 3.81962 109.871 0.474803 105.761 0.474803C101.651 0.474803 98.3066 3.81962 98.3066 7.92963C98.3066 12.0396 101.651 15.3845 105.761 15.3845C106.474 15.3845 107.165 15.2848 107.817 15.0962L95.2458 27.67C94.0037 28.9121 94.0037 30.9258 95.2458 32.1679L96.0937 33.0157C96.4413 33.3634 100.848 37.768 101.194 38.1135L102.041 38.9635C102.662 39.5824 103.476 39.894 104.29 39.894C105.104 39.894 105.918 39.5845 106.539 38.9635L126.619 18.8819L126.621 36.8205C126.621 38.5756 128.045 40 129.8 40H131C131.488 40 139.411 40 139.411 40C141.166 40 142.59 38.5756 142.59 36.8205V33.4927C142.692 33.5923 146.476 37.768 146.821 38.1135L147.669 38.9635C148.29 39.5824 149.104 39.894 149.918 39.894C150.732 39.894 151.544 39.5845 152.165 38.9635L155.558 35.5699C156.516 38.1538 159.007 40 161.919 40C163.009 40 164.069 39.7329 165.014 39.2475C165.96 39.7329 167.021 40 168.111 40C169.834 40 171.409 39.3535 172.607 38.2873C173.137 39.3048 174.203 40 175.428 40H185.039C186.794 40 188.218 38.5756 188.218 36.8205V7.98686C188.218 3.58222 184.636 0 180.231 0ZM168.111 26.4321C167.021 26.4321 165.96 26.6992 165.014 27.1846C164.773 27.0595 164.525 26.9514 164.27 26.8581L172.246 18.8819L172.249 27.8438C171.104 26.9599 169.667 26.4321 168.111 26.4321Z" fill="#623CB5"/>
</g>
</g>
<g id="Group_5">
<g id="Group_6">
<path id="Vector_2" d="M85.1881 0.00211965L68.3687 0.00423931C66.8128 0.00423931 65.5198 1.11918 65.2443 2.59446C64.0891 1.68724 62.6329 1.14461 61.0537 1.14461C59.9642 1.14461 58.9023 1.41169 57.9569 1.89709C57.0115 1.41169 55.9517 1.14461 54.8622 1.14461C51.5216 1.14461 48.7343 3.57374 48.1789 6.75534C47.5854 2.9336 44.2724 0 40.2875 0C36.2071 0 32.8305 3.07774 32.3578 7.03513C30.8804 5.68279 28.9791 4.94091 26.9654 4.94091C24.8331 4.94091 22.8258 5.77182 21.3187 7.28101L0.929733 27.67C-0.310264 28.9121 -0.310264 30.9258 0.931853 32.1679L7.72746 38.9635C8.3464 39.5824 9.16035 39.894 9.9743 39.894C10.7882 39.894 11.6022 39.5845 12.2233 38.9635L16.789 34.3978C17.6157 37.6154 20.5408 40 24.0106 40C28.1207 40 31.4655 36.6552 31.4655 32.5452C31.4655 29.0732 29.0787 26.1502 25.8611 25.3256L32.3027 18.884L32.3049 36.8205C32.3049 38.5756 33.7293 40 35.4843 40H36.6841C37.1737 40 43.4076 40 43.8951 40H45.0948C46.852 40 48.2743 38.5756 48.2743 36.8205V33.5986C48.374 33.6983 53.353 39.0695 53.353 39.0695C53.9741 39.6905 54.788 40 55.602 40C56.4159 40 57.2299 39.6905 57.8509 39.0695L65.1913 31.727V36.8205C65.1913 38.5777 66.6136 40 68.3708 40H69.5705C70.058 40 76.294 40 76.7816 40H77.9813C79.7364 40 81.1608 38.5756 81.1608 36.8205V20.0011C81.1608 18.5321 80.7623 17.1565 80.067 15.9737H85.1881C89.5928 15.9737 93.175 12.3894 93.175 7.98686C93.175 3.58222 89.5928 0.00211965 85.1881 0.00211965ZM25.2888 9.73557C25.3948 9.67834 25.5008 9.62959 25.6089 9.58508C25.5008 9.62959 25.3948 9.68046 25.2888 9.73557ZM65.1913 19.8378C63.7245 18.5131 61.8444 17.7881 59.8519 17.7881C57.7174 17.7881 55.7122 18.6212 54.203 20.1282L48.2743 26.0611V9.55328C49.0035 12.5123 51.6806 14.7125 54.8622 14.7125C55.9517 14.7125 57.0115 14.4454 57.9569 13.96C58.9023 14.4454 59.9642 14.7125 61.0537 14.7125C62.6244 14.7125 64.0721 14.1762 65.2252 13.2733C65.363 14.1805 65.8823 14.9626 66.6178 15.448C65.7466 16.6986 65.2231 18.2078 65.1913 19.8378Z" fill="#623CB5"/>
</g>
</g>
<g id="Group_7">
<g id="Group_8">
<path id="Vector_3" d="M25.2888 9.73558C25.3948 9.68047 25.5008 9.6296 25.6089 9.58508C25.5008 9.6296 25.3948 9.67835 25.2888 9.73558Z" fill="#623CB5"/>
<path id="Vector_4" d="M25.2888 9.73558C25.3948 9.68047 25.5008 9.6296 25.6089 9.58508C25.5008 9.6296 25.3948 9.67835 25.2888 9.73558Z" fill="#623CB5"/>
</g>
<g id="Group_9">
<path id="Vector_5" d="M25.2888 9.73558C25.3948 9.68047 25.5008 9.6296 25.6089 9.58508C25.5008 9.6296 25.3948 9.67835 25.2888 9.73558Z" fill="#623CB5"/>
</g>
</g>
</g>
<path id="Vector_6" d="M180.231 3.1795C177.577 3.1795 175.426 5.33095 175.426 7.98688L175.428 36.8205H176.628V7.98688C176.628 5.99441 178.241 4.38135 180.231 4.38135C181.228 4.38135 182.128 4.78408 182.781 5.43694C183.434 6.08979 183.837 6.99064 183.837 7.98688L183.839 36.8205H185.039V7.98688C185.039 5.33095 182.887 3.1795 180.231 3.1795ZM183.237 7.98688V36.2737C183.237 36.3691 183.188 36.4517 183.116 36.5005C183.072 36.5301 183.019 36.5471 182.961 36.5471C182.904 36.5471 182.853 36.5301 182.809 36.5005C182.065 36.0257 181.181 35.7522 180.231 35.7522C179.284 35.7522 178.4 36.0257 177.656 36.5005C177.611 36.5301 177.558 36.5471 177.501 36.5471C177.351 36.5471 177.228 36.4263 177.228 36.2737V7.98688C177.228 6.32719 178.574 4.98333 180.231 4.98333C181.06 4.98333 181.813 5.32036 182.357 5.86299C182.9 6.40562 183.237 7.15598 183.237 7.98688ZM134.604 3.1795C131.95 3.1795 129.798 5.33095 129.798 7.98688L129.8 36.8205H131V7.98688C131 5.99441 132.613 4.38135 134.604 4.38135C135.6 4.38135 136.501 4.78408 137.154 5.43694C137.806 6.08979 138.209 6.99064 138.209 7.98688L138.211 36.8205H139.411V7.98688C139.411 5.33095 137.26 3.1795 134.604 3.1795ZM137.609 7.98688V36.2737C137.609 36.3691 137.561 36.4517 137.488 36.5005C137.444 36.5301 137.391 36.5471 137.334 36.5471C137.277 36.5471 137.226 36.5301 137.181 36.5005C136.437 36.0257 135.553 35.7522 134.604 35.7522C133.656 35.7522 132.772 36.0257 132.028 36.5005C131.984 36.5301 131.931 36.5471 131.874 36.5471C131.723 36.5471 131.6 36.4263 131.6 36.2737V7.98688C131.6 6.32719 132.946 4.98333 134.604 4.98333C135.432 4.98333 136.185 5.32036 136.73 5.86299C137.272 6.40562 137.609 7.15598 137.609 7.98688ZM40.2875 3.1795C37.6337 3.1795 35.4822 5.33095 35.4822 7.98688L35.4844 36.8205H36.6841V7.98688C36.6841 5.99441 38.2971 4.38135 40.2875 4.38135C41.2837 4.38135 42.1846 4.78408 42.8374 5.43694C43.4903 6.08979 43.893 6.99064 43.893 7.98688L43.8951 36.8205H45.0949V7.98688C45.0949 5.33095 42.9434 3.1795 40.2875 3.1795ZM43.2932 7.98688V36.2737C43.2932 36.3691 43.2444 36.4517 43.1723 36.5005C43.1278 36.5301 43.0748 36.5471 43.0176 36.5471C42.9604 36.5471 42.9095 36.5301 42.865 36.5005C42.121 36.0257 41.2371 35.7522 40.2875 35.7522C39.34 35.7522 38.4561 36.0257 37.7121 36.5005C37.6676 36.5301 37.6146 36.5471 37.5574 36.5471C37.4069 36.5471 37.2839 36.4263 37.2839 36.2737V7.98688C37.2839 6.32719 38.6299 4.98333 40.2875 4.98333C41.1163 4.98333 41.8688 5.32036 42.4135 5.86299C42.9561 6.40562 43.2932 7.15598 43.2932 7.98688ZM73.1718 15.1937C70.518 15.1937 68.3666 17.3452 68.3666 20.0011L68.3687 36.8227H69.5684V20.0011C69.5684 18.0086 71.1815 16.3955 73.1718 16.3955C74.1681 16.3955 75.0689 16.7983 75.7218 17.4511C76.3746 18.104 76.7773 19.0048 76.7773 20.0011L76.7795 36.8227H77.9792V20.0011C77.9792 17.3452 75.8277 15.1937 73.1718 15.1937ZM76.1775 20.0011V36.2737C76.1775 36.3691 76.1287 36.4517 76.0567 36.5005C76.0122 36.5301 75.9592 36.5471 75.9019 36.5471C75.8447 36.5471 75.7938 36.5301 75.7493 36.5005C75.0053 36.0257 74.1214 35.7522 73.1718 35.7522C72.2243 35.7522 71.3404 36.0257 70.5964 36.5005C70.5519 36.5301 70.4989 36.5471 70.4417 36.5471C70.2912 36.5471 70.1683 36.4263 70.1683 36.2737V20.0011C70.1683 18.3414 71.5142 16.9975 73.1718 16.9975C74.0006 16.9975 74.7531 17.3346 75.2978 17.8772C75.8405 18.4198 76.1775 19.1702 76.1775 20.0011ZM63.2476 22.3751C61.3717 20.4992 58.3279 20.4992 56.4499 22.3772L48.8043 30.0249L49.6521 30.8728L57.2977 23.2272C58.7073 21.8176 60.988 21.8176 62.3955 23.2251C63.0992 23.9288 63.4532 24.8509 63.4532 25.775C63.4532 26.6992 63.1013 27.6191 62.3955 28.325L54.7499 35.9727L55.5978 36.8205L63.2434 29.1749C65.1256 27.2969 65.1256 24.2531 63.2476 22.3751ZM61.9737 27.901L54.7139 35.1609C54.646 35.2287 54.5528 35.252 54.468 35.235C54.415 35.2244 54.3662 35.199 54.326 35.1587C54.2857 35.1185 54.2624 35.0697 54.2518 35.0188C54.061 34.1561 53.6307 33.3379 52.9588 32.6681C52.289 31.9983 51.4708 31.5659 50.6081 31.3751C50.5551 31.3645 50.5064 31.3391 50.4661 31.2988C50.3601 31.1929 50.358 31.019 50.4661 30.9131L57.7259 23.6532C58.9002 22.479 60.8015 22.4811 61.9737 23.6532C62.5587 24.2383 62.8533 25.0098 62.8555 25.7793C62.8533 26.5445 62.5608 27.3139 61.9737 27.901ZM89.9955 7.98688C89.9955 5.33307 87.8441 3.18162 85.1881 3.18162L68.3666 3.18374V4.38347H85.1881C87.1806 4.38347 88.7937 5.99653 88.7937 7.98688C88.7937 8.98312 88.3909 9.88397 87.7381 10.5368C87.0852 11.1897 86.1844 11.5924 85.1881 11.5924L68.3666 11.5945V12.7943H85.1881C87.8441 12.7943 89.9955 10.6428 89.9955 7.98688ZM85.1881 10.9926H68.9156C68.8202 10.9926 68.7375 10.9438 68.6887 10.8717C68.6591 10.8272 68.6421 10.7742 68.6421 10.717C68.6421 10.6598 68.6591 10.6089 68.6887 10.5644C69.1636 9.82038 69.437 8.93649 69.437 7.98688C69.437 7.0394 69.1636 6.1555 68.6887 5.4115C68.6591 5.36699 68.6421 5.314 68.6421 5.25677C68.6421 5.10627 68.7629 4.98333 68.9156 4.98333H85.1881C86.8478 4.98333 88.1917 6.32931 88.1917 7.98688C88.1917 8.81567 87.8547 9.56814 87.312 10.1129C86.7694 10.6555 86.019 10.9926 85.1881 10.9926ZM170.305 9.52787C168.429 7.65198 165.385 7.65198 163.507 9.52999L143.12 29.9189L143.968 30.7668L164.357 10.3779C165.767 8.96828 168.048 8.96828 169.455 10.3757C170.159 11.0795 170.513 12.0015 170.513 12.9257C170.513 13.8498 170.161 14.7698 169.455 15.4756L149.068 35.8646L149.916 36.7124L170.305 16.3235C172.183 14.4476 172.183 11.4059 170.305 9.52787ZM169.031 15.0517L149.03 35.0527C148.962 35.1206 148.869 35.1439 148.784 35.1269C148.731 35.1163 148.682 35.0909 148.642 35.0506C148.602 35.0104 148.579 34.9616 148.568 34.9107C148.377 34.048 147.947 33.2298 147.275 32.56C146.605 31.8902 145.787 31.4578 144.924 31.267C144.871 31.2564 144.822 31.231 144.782 31.1907C144.676 31.0848 144.674 30.9109 144.782 30.805L164.783 10.8039C165.958 9.62961 167.859 9.63173 169.031 10.8039C169.616 11.3889 169.911 12.1605 169.913 12.9299C169.911 13.6951 169.618 14.4645 169.031 15.0517ZM124.677 9.52787C122.801 7.65198 119.758 7.65198 117.88 9.52999L97.4927 29.9189L98.3406 30.7668L118.73 10.3779C120.139 8.96828 122.42 8.96828 123.827 10.3757C124.531 11.0795 124.885 12.0015 124.885 12.9257C124.885 13.8498 124.533 14.7698 123.827 15.4756L103.44 35.8646L104.288 36.7124L124.677 16.3235C126.555 14.4476 126.555 11.4059 124.677 9.52787ZM123.403 15.0517L103.402 35.0527C103.334 35.1206 103.241 35.1439 103.156 35.1269C103.103 35.1163 103.055 35.0909 103.014 35.0506C102.974 35.0104 102.951 34.9616 102.94 34.9107C102.749 34.048 102.319 33.2298 101.647 32.56C100.977 31.8902 100.159 31.4578 99.2966 31.267C99.2436 31.2564 99.1948 31.231 99.1545 31.1907C99.0486 31.0848 99.0464 30.9109 99.1545 30.805L119.156 10.8039C120.33 9.62961 122.231 9.63173 123.403 10.8039C123.988 11.3889 124.283 12.1605 124.285 12.9299C124.283 13.6951 123.991 14.4645 123.403 15.0517ZM30.3633 9.52787C28.4874 7.65198 25.4436 7.65198 23.5655 9.52999L3.17871 29.9189L4.02657 30.7668L24.4155 10.3779C25.8251 8.96828 28.1058 8.96828 29.5133 10.3757C30.217 11.0795 30.571 12.0015 30.571 12.9257C30.571 13.8498 30.2191 14.7698 29.5133 15.4756L9.12646 35.8646L9.97432 36.7124L30.3633 16.3235C32.2413 14.4476 32.2413 11.4059 30.3633 9.52787ZM29.0894 15.0517L9.08831 35.0527C9.02048 35.1206 8.92721 35.1439 8.84243 35.1269C8.78944 35.1163 8.74068 35.0909 8.70041 35.0506C8.66014 35.0104 8.63682 34.9616 8.62622 34.9107C8.43545 34.048 8.00516 33.2298 7.33323 32.56C6.66342 31.8902 5.84524 31.4578 4.98254 31.267C4.92955 31.2564 4.88079 31.231 4.84052 31.1907C4.73454 31.0848 4.73242 30.9109 4.84052 30.805L24.8416 10.8039C26.0159 9.62961 27.9172 9.63173 29.0894 10.8039C29.6744 11.3889 29.969 12.1605 29.9711 12.9299C29.969 13.6951 29.6765 14.4645 29.0894 15.0517ZM171.715 33.215C171.715 35.2075 170.101 36.8205 168.111 36.8205C166.795 36.8205 165.644 36.1168 165.014 35.0633C164.385 36.1168 163.234 36.8205 161.92 36.8205C159.929 36.8205 158.314 35.2075 158.314 33.215C158.314 31.2247 159.929 29.6116 161.92 29.6116C163.234 29.6116 164.385 30.3153 165.014 31.3667C165.644 30.3153 166.795 29.6116 168.111 29.6116C170.101 29.6116 171.715 31.2247 171.715 33.215ZM64.6572 7.92753C64.6572 9.92001 63.0441 11.5331 61.0538 11.5331C59.7374 11.5331 58.5865 10.8293 57.9569 9.77587C57.3274 10.8293 56.1764 11.5331 54.8622 11.5331C52.8719 11.5331 51.2567 9.92001 51.2567 7.92753C51.2567 5.93718 52.8719 4.32412 54.8622 4.32412C56.1764 4.32412 57.3274 5.02784 57.9569 6.07919C58.5865 5.02784 59.7374 4.32412 61.0538 4.32412C63.0441 4.32412 64.6572 5.93718 64.6572 7.92753ZM110.035 7.92965C110.035 10.2909 108.121 12.205 105.759 12.205C103.398 12.205 101.484 10.2909 101.484 7.92965C101.484 5.56835 103.398 3.65431 105.759 3.65431C108.121 3.65431 110.035 5.56835 110.035 7.92965ZM28.2839 32.5452C28.2839 34.9065 26.3698 36.8205 24.0086 36.8205C21.6473 36.8205 19.7332 34.9065 19.7332 32.5452C19.7332 30.1839 21.6473 28.2699 24.0086 28.2699C26.3698 28.2699 28.2839 30.186 28.2839 32.5452Z" fill="white"/>
</g>
</svg>
